<svg xmlns="http://www.w3.org/2000/svg" width="139" height="49" viewBox="0 0 139 49">
  <g id="logo" transform="translate(-6821 4467)">
    <g id="Logo-2" data-name="Logo" transform="translate(6860.412 -4467)">
      <path id="Subtração_4" data-name="Subtração 4" d="M35.792,47.494h0L26.21,37.653l4.6.141,9.368-1.031L35.792,47.494ZM10.8,21.829,0,10.733l11.263-2.19-.445.9.426.967a5.85,5.85,0,0,0-.462,1.094,5.069,5.069,0,0,0-.179,2.478,7.8,7.8,0,0,0,1.217,2.6,12.481,12.481,0,0,0,.933,1.213l-1.518,2.9L10.8,21.828Zm38.959-8.505h0c-1.124-1.838-2.7-4.348-3.8-5.863a50.757,50.757,0,0,0-3.949-4.737l-.222-.114L55.209,0Z" transform="translate(0 1.506)" fill="#fff"/>
      <g id="Grupo_21" data-name="Grupo 21" transform="translate(9.46)">
        <path id="Subtração_2" data-name="Subtração 2" d="M19.248,39.807h0A37.985,37.985,0,0,1,14.28,39.5a19.32,19.32,0,0,1-3.31-.695c-.531-.173-1.35-.45-2.318-.852a23.634,23.634,0,0,1-3.1-1.546,15.144,15.144,0,0,1-3.021-2.332,10.256,10.256,0,0,1-1.217-1.49,8.255,8.255,0,0,1-.879-1.721A8.364,8.364,0,0,1,.074,27a15.756,15.756,0,0,1,.956-3.722,23.24,23.24,0,0,1,1.293-2.8c.375-.689.646-1.1.649-1.106h0a4.835,4.835,0,0,1-.554-.492,6.63,6.63,0,0,1-1.078-1.449,6.007,6.007,0,0,1-.721-2.363,7.133,7.133,0,0,1,.515-3.234.691.691,0,0,0-.031-.57.632.632,0,0,1,.031-.656A8.247,8.247,0,0,1,2.459,8.891,6.34,6.34,0,0,1,3.928,7.817,6.451,6.451,0,0,1,6.963,7.1a9.411,9.411,0,0,1,2.378.327,14.537,14.537,0,0,1,1.581.525,2.455,2.455,0,0,0,.36.125c.095.01.295.038.548.073.683.1,1.825.256,2.35.256a.531.531,0,0,0,.277-.041c.035-.032.667-.573,1.679-1.379.9-.714,2.283-1.791,3.813-2.869A41.737,41.737,0,0,1,24.48,1.284,9.191,9.191,0,0,1,28.317,0h.023c3.415.027,7.565,6.814,11.227,12.8h0c.648,1.059,1.259,2.059,1.861,3.014a8.919,8.919,0,0,1,1.269,4.1,16.746,16.746,0,0,1,.015,2.431c-.049.813-.146,1.688-.3,2.674a39.819,39.819,0,0,0-.324,4.628c-.037,1.177-.073,2.289-.182,3.24a5.267,5.267,0,0,1-.628,2.244,3.6,3.6,0,0,1-1.715,1.388,5.271,5.271,0,0,1-1.951.341,7.631,7.631,0,0,1-2.007-.274h0a2.573,2.573,0,0,1-.366.536,3.222,3.222,0,0,1-.5.469,3.3,3.3,0,0,1-.758.424,11.3,11.3,0,0,1-1.749.507c-.634.139-1.366.267-2.238.39-1.62.23-3.495.411-5.308.587l-.725.07C22.364,39.728,20.779,39.807,19.248,39.807Zm-4.579-8.5h0c.426,0,.685.006.7.006-.007,0-1,.073-2.314.242a31.829,31.829,0,0,0-4.405.842,14.392,14.392,0,0,0-2.953,1.149,3.351,3.351,0,0,0-1.046.791c-.025.033-.011.107.04.209a7.736,7.736,0,0,0,3.088,2.527A17.739,17.739,0,0,0,16.053,38.9h.071a120.754,120.754,0,0,0,12.32-.637,32.1,32.1,0,0,0,4.435-.748c1.159-.311,1.764-.653,1.8-1.017.012-.126-.088-.25-.308-.378a4.42,4.42,0,0,0-.877-.351c-.733-.228-1.742-.449-2.718-.662-.556-.121-1.13-.247-1.653-.375C26.1,34,24.061,33.63,24.041,33.626c.016,0,2.546.262,5.179.493,1.791.157,2.833.288,4.152.454.4.051.823.1,1.306.163a12.262,12.262,0,0,0,1.474.1,4.663,4.663,0,0,0,3.542-1.206,5.906,5.906,0,0,0,.989-2.718,17.892,17.892,0,0,0,.21-1.886c0-.007-.009-.745-.118-1.657a8.851,8.851,0,0,0-.743-2.84,7.249,7.249,0,0,0-1.9-2.229,7.13,7.13,0,0,0-1.112-.736h0a9.672,9.672,0,0,1,.933.282,7.091,7.091,0,0,1,1.739.871,5.428,5.428,0,0,1,1.317,1.531c.107.17.178.282.212.282a.014.014,0,0,0,.009,0,5.329,5.329,0,0,0,.3-1.717,12.1,12.1,0,0,0-.047-2.766,13.658,13.658,0,0,0-1.259-3.483,42.493,42.493,0,0,0-3.506-5.8C34.867,8.135,33.245,6.01,31.9,4.447c-1.631-1.89-2.8-2.877-3.466-2.934L28.29,1.5h-.006c-.288-.025-.561-.049-.853-.049-1.187,0-2.606.415-5.673,2.443A78.2,78.2,0,0,0,15.221,8.95c-1.964,1.66-3.448,3.009-3.463,3.022l1.948-2.984H13.7a23.68,23.68,0,0,1-2.726-.54,12.628,12.628,0,0,0-3.656-.611,6.659,6.659,0,0,0-2.128.316A6.985,6.985,0,0,0,2.643,9.657a2.545,2.545,0,0,0-.9,1.428,2.822,2.822,0,0,0,.9.978c.244.165.5.31.748.451s.5.282.7.425c.147.105.321.223.5.348a6.977,6.977,0,0,1,.97.722c.034.04.046.072.038.1s-.078.053-.14.067-.131.029-.127.073a.069.069,0,0,1-.013.054.07.07,0,0,1-.054.018,3.731,3.731,0,0,1-1.005-.5c-.256-.15-.52-.306-.771-.439a7.011,7.011,0,0,0-1.385-.5,2.171,2.171,0,0,0-.3.716,6.317,6.317,0,0,0-.068,2.409A4.283,4.283,0,0,0,2.936,18.44a4.039,4.039,0,0,0,.962.741h0a.837.837,0,0,1-.061.168c-.123.263-.339.649-.613,1.138A23.753,23.753,0,0,0,.9,25.577a8.522,8.522,0,0,0-.216,3.658,3.253,3.253,0,0,0,.407,1.15l.131.441A3.288,3.288,0,0,0,1.807,32.4c.156.208.517.313,1.073.313A10.416,10.416,0,0,0,5.039,32.4s.059-.024,3.009-.6a28.154,28.154,0,0,1,3.658-.411c1.191-.068,2.268-.082,2.962-.082Z" transform="translate(0)" fill="#fff"/>
        <path id="Subtração_1" data-name="Subtração 1" d="M9.762,13.4a8.509,8.509,0,0,1-3.043-.558,10,10,0,0,1-2.045-1.159,14.4,14.4,0,0,0-1.271-.8c-.36-.193-.712-.375-1.053-.55-.7-.363-1.311-.676-1.738-.958-.469-.312-.661-.55-.6-.751.063-.218.335-.48.856-.823.477-.314,1.113-.667,1.85-1.075a39.938,39.938,0,0,0,4-2.442A23.951,23.951,0,0,0,9.833,1.606,5.942,5.942,0,0,1,11.676.165,2.151,2.151,0,0,1,12.49,0,1.781,1.781,0,0,1,13.1.1a1.414,1.414,0,0,1,.472.278,1.218,1.218,0,0,1,.306.686,1.563,1.563,0,0,0-.825-.436.391.391,0,0,0-.24.077c-.174.13.37.9,1.058,1.871.442.625.944,1.334,1.366,2.028a6.679,6.679,0,0,1,.881,1.922,4.16,4.16,0,0,1-.02,1.607A8.159,8.159,0,0,1,15.582,9.8a7.419,7.419,0,0,1-1.44,2.328,4.9,4.9,0,0,1-1.6.822,8.812,8.812,0,0,1-2.785.451Zm1.57-10.719h0a3.294,3.294,0,0,0-.4.024,2.356,2.356,0,0,0-1.92.859A17.864,17.864,0,0,1,7.458,4.95,14.61,14.61,0,0,0,5.2,7.007a1.941,1.941,0,0,0-.5,1.381,1.569,1.569,0,0,0,.433.835,5.53,5.53,0,0,0,1.161,1,7.194,7.194,0,0,0,3.9,1.195h0a6.659,6.659,0,0,0,1.033-.081,4.019,4.019,0,0,0,3.015-2.131,5.521,5.521,0,0,0,.622-2.222,3.867,3.867,0,0,0-.233-1.764c-.348-.764-1.368-2.54-3.3-2.54Z" transform="translate(16.854 6.331)" fill="#fff"/>
        <path id="Caminho_4" data-name="Caminho 4" d="M1096.313-3237.021c-.148-.863,1.439-1.312,3.141-1.472s3.531-.34,3.647.872-1.452,1.348-3.153,1.508S1096.46-3236.157,1096.313-3237.021Z" transform="translate(-1073.406 3251.206)" fill="#fff"/>
        <path id="Caminho_5" data-name="Caminho 5" d="M899.686-3119.073s.709-1,1.626-2.417,3.157-2.553,8.5-3.085a54.387,54.387,0,0,1,13.213,0c4.2.4,8.214,1.716,9.693,3.085.517.478,1.384,1.533,1.125,1.949-.194.311-.922.39-2.709-.337s-2.146-1.639-4.441-2.57c-2.876-1.167-8.545-1.741-14.672-1.5s-9.045,1.917-9.837,2.459a7.946,7.946,0,0,0-2.042,2.417C899.519-3118.072,899.686-3119.073,899.686-3119.073Z" transform="translate(-898.914 3149.895)" fill="#fff"/>
        <path id="Caminho_8" data-name="Caminho 8" d="M2.953,1.281C3.017.584,2.328.222,1.588.093S.053-.182,0,.8.634,1.884,1.373,2.014,2.888,1.978,2.953,1.281Z" transform="translate(0.752 14.806) rotate(-7)" fill="#fff"/>
        <path id="Caminho_10" data-name="Caminho 10" d="M924.476-3261.457s2.146-7.843,3.5-8.583c.554-.3,1.436-.487,2.294-.888a20.952,20.952,0,0,0,2.294-1.283l2.22.395v.666s-5.278.395-6.388,1.776-3.724,8.065-3.724,8.065Z" transform="translate(-920.832 3280.63)" fill="#fff"/>
        <path id="Caminho_11" data-name="Caminho 11" d="M932.687-3168.976a.743.743,0,0,1-.417-.961,8.372,8.372,0,0,1,1.209-2.038Z" transform="translate(-927.719 3191.878)" fill="#fff"/>
        <path id="Caminho_12" data-name="Caminho 12" d="M969.625-3171.97l-.958,3.206s1.261-.267,1.5-1.069A3.64,3.64,0,0,0,969.625-3171.97Z" transform="translate(-960.071 3191.291)" fill="#fff"/>
      </g>
    </g>
    <text id="VOID" transform="translate(6922 -4439)" fill="#fff" font-size="12" font-family="YuGothic-Regular, Yu Gothic" letter-spacing="0.24em"><tspan x="0" y="0">VOID</tspan></text>
    <text id="AND" transform="translate(6821 -4439)" fill="#fff" font-size="12" font-family="YuGothic-Regular, Yu Gothic" letter-spacing="0.24em"><tspan x="0" y="0">AND</tspan></text>
  </g>
</svg>
