<svg xmlns="http://www.w3.org/2000/svg" width="60" height="60" viewBox="0 0 60 60">
  <g id="logo-title" transform="translate(-1313 262)">
    <rect id="Retângulo_8" data-name="Retângulo 8" width="60" height="60" rx="30" transform="translate(1313 -262)"/>
    <g id="Logo" transform="translate(1316 -251.789)">
      <path id="Subtração_4" data-name="Subtração 4" d="M32.351,42.928h0l-8.661-8.9,4.159.127,8.467-.932-3.966,9.7ZM9.764,19.73,0,9.7,10.18,7.722l-.4.818.385.874a5.288,5.288,0,0,0-.418.989,4.581,4.581,0,0,0-.162,2.239,7.051,7.051,0,0,0,1.1,2.347,11.281,11.281,0,0,0,.844,1.1l-1.372,2.624-.39,1.02Zm35.214-7.688h0c-1.016-1.662-2.437-3.93-3.439-5.3A45.877,45.877,0,0,0,37.97,2.462l-.2-.1L49.9,0Z" transform="translate(0 1.361)" fill="#fff"/>
      <g id="Grupo_21" data-name="Grupo 21" transform="translate(8.551)">
        <path id="Subtração_2" data-name="Subtração 2" d="M17.4,35.98h0a34.333,34.333,0,0,1-4.49-.277,17.462,17.462,0,0,1-2.992-.628c-.48-.157-1.22-.407-2.1-.77a21.361,21.361,0,0,1-2.8-1.4A13.688,13.688,0,0,1,2.291,30.8a9.27,9.27,0,0,1-1.1-1.347A7.462,7.462,0,0,1,.4,27.9a7.56,7.56,0,0,1-.329-3.5,14.241,14.241,0,0,1,.864-3.365A21.006,21.006,0,0,1,2.1,18.5c.339-.623.584-1,.587-1h0a4.37,4.37,0,0,1-.5-.445,5.993,5.993,0,0,1-.974-1.31,5.43,5.43,0,0,1-.652-2.135,6.447,6.447,0,0,1,.466-2.923A.625.625,0,0,0,1,10.178a.571.571,0,0,1,.028-.593,7.454,7.454,0,0,1,1.2-1.548A5.731,5.731,0,0,1,3.55,7.066,5.831,5.831,0,0,1,6.294,6.42a8.506,8.506,0,0,1,2.149.3,13.14,13.14,0,0,1,1.429.474A2.219,2.219,0,0,0,10.2,7.3c.085.009.266.034.5.066.617.087,1.649.231,2.124.231a.48.48,0,0,0,.25-.037c.032-.029.6-.518,1.518-1.247.809-.645,2.064-1.619,3.446-2.593a37.725,37.725,0,0,1,4.1-2.564A8.307,8.307,0,0,1,25.595,0h.021C28.7.025,32.453,6.159,35.764,11.571h0c.585.957,1.138,1.861,1.682,2.724A8.062,8.062,0,0,1,38.593,18a15.136,15.136,0,0,1,.013,2.2c-.044.735-.132,1.526-.267,2.417a35.992,35.992,0,0,0-.293,4.183c-.034,1.064-.066,2.069-.165,2.928a4.76,4.76,0,0,1-.568,2.028,3.257,3.257,0,0,1-1.55,1.255A4.764,4.764,0,0,1,34,33.316a6.9,6.9,0,0,1-1.814-.247h0a2.326,2.326,0,0,1-.331.485,2.912,2.912,0,0,1-.455.424,2.982,2.982,0,0,1-.685.383,10.213,10.213,0,0,1-1.581.459c-.573.126-1.235.241-2.022.353-1.464.208-3.159.372-4.8.531l-.655.064C20.214,35.909,18.781,35.98,17.4,35.98ZM13.258,28.3h0c.385,0,.62,0,.629.005-.006,0-.905.066-2.091.219a28.769,28.769,0,0,0-3.982.761,13.008,13.008,0,0,0-2.67,1.039,3.029,3.029,0,0,0-.946.715c-.023.03-.01.1.036.189A6.993,6.993,0,0,0,7.027,33.51a16.034,16.034,0,0,0,7.482,1.655h.065a109.145,109.145,0,0,0,11.136-.576,29.01,29.01,0,0,0,4.008-.676c1.047-.281,1.595-.59,1.627-.919.011-.114-.08-.226-.279-.342a4,4,0,0,0-.793-.318c-.663-.206-1.575-.405-2.457-.6-.5-.11-1.021-.224-1.495-.339-2.732-.662-4.574-1-4.592-1,.015,0,2.3.237,4.682.446,1.619.142,2.561.261,3.752.41l1.18.147a11.084,11.084,0,0,0,1.333.087,4.215,4.215,0,0,0,3.2-1.091,5.338,5.338,0,0,0,.894-2.457,16.172,16.172,0,0,0,.19-1.7c0-.007-.008-.674-.106-1.5a8,8,0,0,0-.671-2.567,6.552,6.552,0,0,0-1.719-2.014,6.444,6.444,0,0,0-1-.665h0a8.742,8.742,0,0,1,.843.255,6.409,6.409,0,0,1,1.572.788,4.907,4.907,0,0,1,1.19,1.384c.1.154.161.255.191.255a.012.012,0,0,0,.008,0,4.817,4.817,0,0,0,.269-1.552,10.933,10.933,0,0,0-.043-2.5,12.345,12.345,0,0,0-1.138-3.148,38.408,38.408,0,0,0-3.169-5.24c-1.673-2.375-3.139-4.3-4.358-5.708C27.357,2.311,26.3,1.419,25.7,1.368l-.128-.011h0c-.261-.023-.507-.044-.771-.044-1.073,0-2.356.376-5.127,2.208a70.685,70.685,0,0,0-5.909,4.569c-1.775,1.5-3.117,2.719-3.13,2.731l1.761-2.7h0A21.4,21.4,0,0,1,9.92,7.635a11.414,11.414,0,0,0-3.3-.552,6.019,6.019,0,0,0-1.923.285,6.313,6.313,0,0,0-2.3,1.36,2.3,2.3,0,0,0-.81,1.291A2.551,2.551,0,0,0,2.4,10.9c.22.149.452.28.676.407s.45.255.63.384c.133.1.29.2.456.314a6.306,6.306,0,0,1,.876.653c.03.037.042.065.034.087s-.07.048-.127.061-.119.026-.115.066a.062.062,0,0,1-.012.049.064.064,0,0,1-.049.017,3.372,3.372,0,0,1-.909-.453c-.231-.136-.47-.277-.7-.4a6.337,6.337,0,0,0-1.252-.45,1.963,1.963,0,0,0-.268.647,5.71,5.71,0,0,0-.062,2.178,3.871,3.871,0,0,0,1.075,2.2,3.65,3.65,0,0,0,.869.67h0a.757.757,0,0,1-.055.152c-.111.237-.306.586-.554,1.028a21.47,21.47,0,0,0-2.1,4.6,7.7,7.7,0,0,0-.2,3.306,2.94,2.94,0,0,0,.368,1.04l.119.4a2.972,2.972,0,0,0,.529,1.421c.141.188.467.283.97.283a9.415,9.415,0,0,0,1.952-.283s.053-.022,2.72-.539a25.447,25.447,0,0,1,3.306-.372c1.077-.061,2.05-.074,2.677-.074Z" transform="translate(0)" fill="#fff"/>
        <path id="Subtração_1" data-name="Subtração 1" d="M8.823,12.112a7.691,7.691,0,0,1-2.751-.5A9.038,9.038,0,0,1,4.224,10.56a13.012,13.012,0,0,0-1.149-.722c-.326-.174-.644-.339-.951-.5C1.489,9.013.939,8.73.553,8.475c-.424-.282-.6-.5-.545-.679.057-.2.3-.434.774-.744.431-.284,1.006-.6,1.672-.972A36.1,36.1,0,0,0,6.073,3.872,21.649,21.649,0,0,0,8.887,1.451a5.371,5.371,0,0,1,1.666-1.3A1.945,1.945,0,0,1,11.289,0a1.61,1.61,0,0,1,.549.093,1.278,1.278,0,0,1,.427.252,1.1,1.1,0,0,1,.277.62A1.413,1.413,0,0,0,11.8.57a.353.353,0,0,0-.217.07c-.157.118.334.812.956,1.691.4.565.853,1.206,1.235,1.833a6.037,6.037,0,0,1,.8,1.737,3.76,3.76,0,0,1-.018,1.452,7.375,7.375,0,0,1-.464,1.5,6.706,6.706,0,0,1-1.3,2.1,4.427,4.427,0,0,1-1.442.743,7.965,7.965,0,0,1-2.518.407Zm1.419-9.688h0a2.978,2.978,0,0,0-.358.022,2.129,2.129,0,0,0-1.736.777A16.147,16.147,0,0,1,6.741,4.474,13.206,13.206,0,0,0,4.7,6.333a1.755,1.755,0,0,0-.451,1.248,1.418,1.418,0,0,0,.392.755,5,5,0,0,0,1.049.905,6.5,6.5,0,0,0,3.529,1.08h0a6.019,6.019,0,0,0,.934-.073,3.633,3.633,0,0,0,2.725-1.926,4.99,4.99,0,0,0,.562-2.008,3.5,3.5,0,0,0-.211-1.595,3.535,3.535,0,0,0-2.986-2.3Z" transform="translate(15.234 5.723)" fill="#fff"/>
        <path id="Caminho_4" data-name="Caminho 4" d="M1096.312-3237.173c-.134-.78,1.3-1.186,2.839-1.331s3.191-.307,3.3.788-1.312,1.218-2.85,1.363S1096.445-3236.393,1096.312-3237.173Z" transform="translate(-1075.607 3249.995)" fill="#fff"/>
        <path id="Caminho_5" data-name="Caminho 5" d="M899.684-3119.64s.641-.9,1.469-2.185,2.854-2.308,7.686-2.789a49.174,49.174,0,0,1,11.943,0c3.8.358,7.425,1.551,8.761,2.789.467.432,1.251,1.385,1.017,1.761-.175.281-.833.352-2.449-.3s-1.94-1.481-4.014-2.323c-2.6-1.055-7.723-1.573-13.262-1.356s-8.176,1.733-8.891,2.223a7.18,7.18,0,0,0-1.846,2.185C899.533-3118.736,899.684-3119.64,899.684-3119.64Z" transform="translate(-898.986 3147.5)" fill="#fff"/>
        <path id="Caminho_8" data-name="Caminho 8" d="M2.669,1.158C2.727.528,2.1.2,1.435.084S.048-.164,0,.72s.57.983,1.239,1.1S2.611,1.788,2.669,1.158Z" transform="translate(0.68 13.382) rotate(-7)" fill="#fff"/>
        <path id="Caminho_10" data-name="Caminho 10" d="M924.476-3262.49s1.94-7.089,3.166-7.758c.5-.273,1.3-.44,2.073-.8a18.949,18.949,0,0,0,2.073-1.159l2.006.357v.6s-4.771.357-5.774,1.6-3.366,7.29-3.366,7.29Z" transform="translate(-921.182 3279.821)" fill="#fff"/>
        <path id="Caminho_11" data-name="Caminho 11" d="M932.644-3169.264a.672.672,0,0,1-.377-.869,7.569,7.569,0,0,1,1.093-1.842Z" transform="translate(-928.152 3189.965)" fill="#fff"/>
        <path id="Caminho_12" data-name="Caminho 12" d="M969.533-3171.97l-.866,2.9s1.14-.241,1.356-.966A3.289,3.289,0,0,0,969.533-3171.97Z" transform="translate(-960.898 3189.434)" fill="#fff"/>
      </g>
    </g>
  </g>
</svg>
